<?xml version="1.0" encoding="UTF-8"?>
<svg id="Layer_1" xmlns="http://www.w3.org/2000/svg" version="1.1" viewBox="0 0 38 38">
  <!-- Generator: Adobe Illustrator 29.2.1, SVG Export Plug-In . SVG Version: 2.1.0 Build 116)  -->
  <defs>
    <style>
      .st0 {
        fill: #00bad1;
        opacity: .2;
      }

      .st1 {
        stroke: #7367f0;
      }

      .st1, .st2 {
        fill: none;
        stroke-linecap: round;
        stroke-linejoin: round;
        stroke-width: 2px;
      }

      .st3 {
        fill: #7367f0;
        isolation: isolate;
        opacity: .2;
      }

      .st4 {
        fill: #7467ec;
      }

      .st5 {
        display: none;
      }

      .st2 {
        stroke: #00bad1;
      }
    </style>
  </defs>
  <g id="Laptop" class="st5">
    <path id="Vector" class="st3" d="M5.9,26.1v-15.4c0-.6.3-1.2.7-1.7.4-.4,1-.7,1.7-.7h21.4c.6,0,1.2.3,1.7.7.4.4.7,1,.7,1.7v15.4H5.9Z"/>
    <path id="Vector_2" class="st1" d="M5.9,26.1v-15.4c0-.6.3-1.2.7-1.7.4-.4,1-.7,1.7-.7h21.4c.6,0,1.2.3,1.7.7.4.4.7,1,.7,1.7v15.4M21.4,13.1h-4.8M3.6,26.1h30.9v2.4c0,.6-.3,1.2-.7,1.7s-1,.7-1.7.7H5.9c-.6,0-1.2-.3-1.7-.7-.4-.4-.7-1-.7-1.7v-2.4Z"/>
  </g>
  <g class="st5">
    <rect class="st3" x="8.7" y="14.3" width="20.2" height="16.3"/>
    <path class="st4" d="M24.5,5.3c.3,0,.5,0,.7.2h0c.4.3.6.7.6,1.2v1.4h1.4c2.2,0,4,1.7,4.1,3.9v.2s0,16.5,0,16.5c0,2.2-1.7,4-3.9,4.1h-.2s-16.5,0-16.5,0c-2.2,0-4-1.7-4.1-3.9v-.2s0-16.5,0-16.5c0-2.2,1.7-4,3.9-4.1h.2s1.4,0,1.4,0v-1.4c0-.5.3-1,.7-1.2h.1c0,0,0,0,0,0h.1s.1,0,.1,0h.2c0,0,.1,0,.2,0h.2s0,0,0,0h0c.5.2.8.6.8,1.1v.2s0,1.4,0,1.4h8.2v-1.4c0-.8.6-1.4,1.4-1.4M28.6,14.9H9.4v13.2c0,1,.5,1.8,1.2,1.9h.2s16.5,0,16.5,0c.7,0,1.3-.7,1.4-1.7v-.2s0-13.2,0-13.2Z"/>
    <path class="st4" d="M14.9,20.4c0,.8-.6,1.4-1.4,1.4-.8,0-1.4-.5-1.4-1.3,0-.8.5-1.4,1.3-1.4,0,0,0,0,.1,0,.8,0,1.4.6,1.4,1.4"/>
    <path class="st4" d="M20.4,20.4c0,.8-.6,1.4-1.4,1.4-.8,0-1.4-.5-1.4-1.3s.5-1.4,1.3-1.4c0,0,0,0,.1,0,.8,0,1.4.6,1.4,1.4"/>
    <path class="st4" d="M25.9,20.4c0,.8-.6,1.4-1.4,1.4-.8,0-1.4-.5-1.4-1.3,0-.8.5-1.4,1.3-1.4,0,0,0,0,.1,0,.8,0,1.4.6,1.4,1.4"/>
    <path class="st4" d="M19,23.1c.8,0,1.4.6,1.4,1.4s-.6,1.4-1.4,1.4c-.8,0-1.4-.5-1.4-1.3,0-.8.5-1.4,1.3-1.4,0,0,0,0,.1,0h0Z"/>
    <path class="st4" d="M14.9,24.5c0,.8-.6,1.4-1.4,1.4-.8,0-1.4-.5-1.4-1.3,0-.8.5-1.4,1.3-1.4,0,0,0,0,.1,0,.8,0,1.4.6,1.4,1.4"/>
  </g>
  <g>
    <rect class="st0" x="7.5" y="9" width="23" height="23" rx="4" ry="4"/>
    <path class="st2" d="M7.5,11.8c0-1.6,1.3-2.9,2.9-2.9h17.2c1.6,0,2.9,1.3,2.9,2.9v17.2c0,1.6-1.3,2.9-2.9,2.9H10.4c-1.6,0-2.9-1.3-2.9-2.9V11.8Z"/>
    <path class="st2" d="M24.7,6.1v5.7"/>
    <path class="st2" d="M13.3,6.1v5.7"/>
    <path class="st2" d="M7.5,17.6h22.9"/>
    <path class="st2" d="M13.3,21.9v5.7"/>
    <path class="st2" d="M19,21.9v5.7"/>
    <path class="st2" d="M24.7,21.9v5.7"/>
  </g>
</svg>