<?xml version="1.0" encoding="UTF-8"?><svg id="Layer_2" xmlns="http://www.w3.org/2000/svg" viewBox="0 0 132.11 77.69"><defs><style>.cls-1{fill:#398ea8;}.cls-1,.cls-2{stroke-width:0px;}.cls-2{fill:#009fe3;}</style></defs><g id="Layer_1-2"><path class="cls-1" d="M25.88,24.94c2.32-2.25,5.27-4.03,8.88-4.53,2.66-.37,4.72.77,6.6,2.66,11.14,11.21,22.31,22.39,33.52,33.52,7.42,7.37,16.33,9.7,26.24,6.56,9.8-3.11,15.8-10.08,17.52-20.25,1.66-9.83-1.63-18.13-9.38-24.31-7.67-6.11-16.42-7.36-25.52-3.64-2.53,1.03-3.89.62-5.6-1.21-2.14-2.27-4.6-4.24-7.19-6.59,5.84-4.09,11.58-6.21,17.81-6.89,20.21-2.22,38.31,10.78,42.49,30.43,4.19,19.69-7.22,39.21-26.79,45.1-12.91,3.89-25.54,2.03-35.36-7.11-14.89-13.86-28.67-28.9-43.21-43.72Z"/><path class="cls-2" d="M106.02,51.82c-4.44,5.93-11.21,6.54-16.19,1.57-10.98-10.97-21.88-22.02-32.95-32.9-7.35-7.22-16.23-9.51-26.05-6.39-9.44,3-15.5,9.61-17.47,19.38-2.01,9.96.93,18.57,8.8,25.08,8.05,6.66,17.16,7.73,26.79,3.77,1.66-.68,2.7-.66,3.98.67,2.37,2.45,4.93,4.71,7.67,7.3-4.97,3.69-10,5.54-15.36,6.44C23.83,80.3,3.65,65.9.46,44.87-2.81,23.33,11.66,3.5,33.19.5c11.95-1.66,22.86,1.43,31.61,9.9,13.48,13.04,26.61,26.45,39.87,39.71.52.52.92,1.17,1.35,1.72Z"/></g></svg>